<svg width="164" height="164" viewBox="0 0 164 164" fill="none" xmlns="http://www.w3.org/2000/svg">
<path d="M49.2296 81.675C49.047 79.9473 47.4988 78.695 45.7711 78.8772C44.0438 79.0599 42.7914 80.6081 42.9737 82.3354L49.2296 81.675ZM121.041 82.2629C121.183 80.5318 119.895 79.0129 118.164 78.8706C116.433 78.7281 114.914 80.0161 114.771 81.7476L121.041 82.2629ZM46.1017 82.0052C42.9737 82.3354 42.974 82.338 42.9743 82.3402C42.9743 82.3411 42.9746 82.3436 42.9746 82.3455C42.9753 82.349 42.9756 82.3531 42.9762 82.3575C42.9772 82.366 42.9781 82.3764 42.9797 82.3878C42.9822 82.4111 42.9857 82.4398 42.9901 82.4742C42.9989 82.543 43.0115 82.6338 43.0289 82.7451C43.0629 82.9681 43.1156 83.2737 43.1944 83.6503C43.3515 84.4031 43.6136 85.4448 44.0413 86.6789C44.8956 89.1446 46.4227 92.4107 49.1246 95.6724C54.6243 102.311 64.6033 108.472 82.2762 108.472V102.181C66.237 102.181 58.1288 96.6807 53.9692 91.6594C51.8413 89.0906 50.646 86.5266 49.985 84.6194C49.6551 83.6673 49.4611 82.887 49.352 82.3645C49.2978 82.1033 49.2646 81.9081 49.2464 81.7892C49.2372 81.7296 49.2315 81.6895 49.229 81.67C49.2277 81.6602 49.2274 81.6558 49.2274 81.6564C49.2274 81.6567 49.2277 81.6586 49.2281 81.6615C49.2281 81.663 49.2284 81.6649 49.2287 81.6671C49.2287 81.6684 49.229 81.6703 49.229 81.6709C49.2293 81.6728 49.2296 81.675 46.1017 82.0052ZM82.2762 108.472C99.9484 108.472 109.812 102.31 115.183 95.638C117.819 92.3643 119.274 89.0875 120.072 86.6165C120.472 85.3792 120.71 84.3353 120.851 83.5809C120.921 83.2034 120.966 82.8971 120.995 82.6738C121.01 82.5622 121.02 82.4714 121.027 82.4023C121.031 82.3679 121.034 82.3389 121.036 82.3156C121.037 82.3039 121.038 82.2938 121.039 82.285C121.039 82.2806 121.04 82.2765 121.04 82.273C121.04 82.2711 121.04 82.2686 121.04 82.2676C121.041 82.2654 121.041 82.2629 117.906 82.0052C114.771 81.7476 114.771 81.7453 114.772 81.7435C114.772 81.7428 114.772 81.7409 114.772 81.7397C114.772 81.7375 114.772 81.7356 114.772 81.734C114.773 81.7308 114.773 81.7293 114.773 81.7286C114.773 81.728 114.773 81.7324 114.771 81.7419C114.77 81.7614 114.765 81.8012 114.757 81.8605C114.742 81.9787 114.713 82.1736 114.665 82.4338C114.569 82.9548 114.393 83.7329 114.087 84.6819C113.472 86.5837 112.341 89.137 110.283 91.6935C106.267 96.6823 98.316 102.181 82.2762 102.181V108.472Z" fill="black"/>
<path d="M59.7747 61.7807C59.4527 60.0739 57.808 58.9508 56.1011 59.2728C54.3939 59.5948 53.2712 61.2395 53.5932 62.9467L59.7747 61.7807ZM78.195 62.8978C78.4899 61.1859 77.3413 59.5592 75.6297 59.264C73.9178 58.9691 72.2907 60.1177 71.9958 61.8296L78.195 62.8978ZM56.6839 62.3635C53.5932 62.9467 53.5935 62.948 53.5935 62.9492C53.5938 62.9498 53.5941 62.9511 53.5941 62.9521C53.5944 62.9543 53.5951 62.9562 53.5954 62.9587C53.5963 62.9631 53.5973 62.9681 53.5985 62.9738C53.6004 62.9852 53.6033 62.9984 53.6064 63.0139C53.6127 63.0448 53.6209 63.0839 53.631 63.1309C53.6515 63.2249 53.6802 63.3501 53.7187 63.5021C53.7953 63.8055 53.9111 64.2208 54.0763 64.7109C54.4031 65.6804 54.9424 66.9997 55.7949 68.3439C57.521 71.0666 60.7101 74.1009 65.9594 74.1009V67.8102C63.5536 67.8102 62.1051 66.5487 61.1075 64.9752C60.5978 64.1716 60.2534 63.3428 60.0371 62.7013C59.9308 62.3859 59.8602 62.1298 59.8182 61.9636C59.7974 61.8807 59.7838 61.8214 59.7769 61.7892C59.7734 61.7735 59.7715 61.7643 59.7712 61.7627C59.7712 61.7618 59.7712 61.7627 59.7719 61.7659C59.7722 61.7675 59.7725 61.7694 59.7731 61.7719C59.7734 61.7731 59.7734 61.7744 59.7737 61.776C59.7741 61.7766 59.7741 61.7779 59.7744 61.7782C59.7744 61.7795 59.7747 61.7807 56.6839 62.3635ZM65.9594 74.1009C71.2197 74.1009 74.3801 71.0543 76.0737 68.3126C76.9079 66.9628 77.4274 65.6388 77.7393 64.6671C77.897 64.1757 78.0061 63.7594 78.078 63.4551C78.114 63.3028 78.1408 63.1772 78.16 63.0829C78.1695 63.0359 78.177 62.9965 78.1827 62.9656C78.1856 62.9502 78.1881 62.9366 78.19 62.9252C78.1912 62.9196 78.1922 62.9145 78.1928 62.9098C78.1931 62.9076 78.1937 62.9054 78.1941 62.9035C78.1941 62.9025 78.1944 62.901 78.1944 62.9006C78.1947 62.8991 78.195 62.8978 75.0954 62.3635C71.9958 61.8296 71.9958 61.828 71.9961 61.8268C71.9961 61.8264 71.9965 61.8252 71.9965 61.8246C71.9968 61.823 71.9971 61.8217 71.9974 61.8205C71.9977 61.8179 71.998 61.816 71.9983 61.8145C71.999 61.8113 71.999 61.8104 71.999 61.811C71.9987 61.8126 71.9971 61.8214 71.9939 61.8372C71.9873 61.869 71.975 61.928 71.9555 62.0103C71.9163 62.1759 71.8501 62.431 71.7495 62.7452C71.5445 63.3844 71.2152 64.2085 70.7223 65.0065C69.7616 66.561 68.3544 67.8102 65.9594 67.8102V74.1009Z" fill="black"/>
<path d="M90.6175 61.7807C90.2955 60.0736 88.6507 58.9508 86.9439 59.2728C85.2367 59.5945 84.1139 61.2395 84.4359 62.9464L90.6175 61.7807ZM109.038 62.8978C109.333 61.1859 108.184 59.5589 106.472 59.264C104.761 58.9688 103.133 60.1174 102.839 61.8293L109.038 62.8978ZM87.5267 62.3636C84.4359 62.9464 84.4363 62.9477 84.4363 62.9492C84.4366 62.9495 84.4369 62.9511 84.4369 62.9521C84.4372 62.954 84.4378 62.9562 84.4381 62.9584C84.4391 62.9631 84.44 62.9682 84.441 62.9738C84.4432 62.9849 84.446 62.9984 84.4492 63.0139C84.4555 63.0448 84.4637 63.0839 84.4738 63.1309C84.4943 63.2246 84.523 63.3498 84.5615 63.5021C84.6381 63.8055 84.7538 64.2205 84.9191 64.7107C85.2458 65.6805 85.7852 66.9997 86.6376 68.3439C88.3637 71.0663 91.5529 74.1009 96.8021 74.1009V67.8102C94.3964 67.8102 92.9478 66.5487 91.95 64.9753C91.4406 64.1713 91.0962 63.3425 90.8799 62.7013C90.7736 62.386 90.7029 62.1299 90.661 61.9633C90.6402 61.8807 90.6266 61.8211 90.6197 61.7893C90.6162 61.7732 90.6143 61.764 90.614 61.7624C90.614 61.7618 90.614 61.7628 90.6146 61.7656C90.6149 61.7672 90.6153 61.7694 90.6159 61.7716C90.6162 61.7729 90.6162 61.7744 90.6165 61.7757C90.6168 61.7766 90.6168 61.7776 90.6172 61.7782C90.6172 61.7795 90.6175 61.7807 87.5267 62.3636ZM96.8021 74.1009C102.062 74.1009 105.223 71.054 106.917 68.3127C107.751 66.9625 108.27 65.6385 108.582 64.6668C108.74 64.1754 108.849 63.7595 108.921 63.4551C108.957 63.3025 108.984 63.1769 109.002 63.083C109.012 63.0356 109.02 62.9965 109.025 62.9653C109.028 62.9499 109.031 62.9366 109.033 62.9253C109.034 62.9196 109.035 62.9145 109.036 62.9098C109.036 62.9076 109.037 62.9054 109.037 62.9032C109.037 62.9022 109.037 62.901 109.037 62.9003C109.037 62.8991 109.038 62.8978 105.938 62.3636C102.839 61.8293 102.839 61.828 102.839 61.8268C102.839 61.8265 102.839 61.8252 102.839 61.8246C102.84 61.823 102.84 61.8217 102.84 61.8205C102.84 61.8179 102.841 61.8157 102.841 61.8142C102.842 61.8113 102.842 61.8101 102.842 61.811C102.841 61.8123 102.84 61.8214 102.837 61.8372C102.83 61.8687 102.818 61.928 102.798 62.0103C102.759 62.1759 102.693 62.4311 102.592 62.7452C102.387 63.3845 102.058 64.2086 101.565 65.0065C100.604 66.561 99.1972 67.8102 96.8021 67.8102V74.1009Z" fill="black"/>
<path d="M101.697 8.49274L111.756 30.4625L135.812 28.189L133.538 52.2448L155.508 62.304L141.511 82L155.508 101.696L133.538 111.756L135.812 135.811L111.756 133.538L101.697 155.508L82.0006 141.511L62.3042 155.508L52.2454 133.538L28.1894 135.811L30.4629 111.756L8.49316 101.696L22.49 82L8.49316 62.304L30.4629 52.2448L28.1894 28.189L52.2454 30.4625L62.3042 8.49274L82.0006 22.4896L101.697 8.49274Z" fill="#F95902" stroke="black" stroke-width="6.29059" stroke-linejoin="round"/>
<path d="M61.2596 77.9967C61.5844 76.2905 60.4642 74.6438 58.7576 74.319C57.0514 73.9941 55.4048 75.1144 55.0799 76.8206L61.2596 77.9967ZM107.934 90.93C108.479 89.2805 107.584 87.5017 105.934 86.9564C104.285 86.4111 102.506 87.3062 101.961 88.9556L107.934 90.93ZM58.1697 77.4088C55.0799 76.8206 55.0796 76.8222 55.0793 76.8241C55.079 76.8247 55.0787 76.8266 55.0787 76.8279C55.078 76.8307 55.0774 76.8335 55.0768 76.837C55.0755 76.844 55.0739 76.8518 55.0724 76.8616C55.0689 76.8805 55.0645 76.9048 55.0594 76.9345C55.049 76.9938 55.0355 77.0742 55.02 77.1745C54.9888 77.3747 54.9487 77.6551 54.9077 78.0055C54.8254 78.7057 54.7384 79.6919 54.71 80.8859C54.6529 83.2617 54.8251 86.5307 55.7706 90.0374C57.7042 97.2077 62.8642 105.2 75.1024 108.479L76.7307 102.403C67.0068 99.7979 63.2938 93.7744 61.8443 88.3993C61.0984 85.6334 60.9518 82.9977 60.9987 81.0367C61.0221 80.0628 61.0927 79.2724 61.1555 78.7382C61.1867 78.4717 61.2157 78.2704 61.2356 78.1433C61.2454 78.0799 61.2529 78.0352 61.2574 78.0102C61.2596 77.9979 61.2608 77.9907 61.2611 77.9882C61.2615 77.9869 61.2615 77.9872 61.2611 77.9885C61.2608 77.9894 61.2608 77.9904 61.2605 77.9916C61.2605 77.9923 61.2602 77.9935 61.2602 77.9942C61.2599 77.9954 61.2596 77.9967 58.1697 77.4088ZM75.1024 108.479C87.3481 111.761 95.738 107.389 100.915 102.099C103.443 99.516 105.181 96.7532 106.283 94.6559C106.838 93.6016 107.241 92.6993 107.509 92.0483C107.643 91.7225 107.744 91.4582 107.814 91.268C107.849 91.1731 107.876 91.0965 107.896 91.0394C107.906 91.011 107.914 90.9877 107.92 90.9694C107.923 90.9602 107.926 90.9523 107.928 90.9457C107.929 90.9426 107.93 90.9394 107.931 90.9369C107.932 90.9356 107.932 90.9337 107.933 90.9331C107.933 90.9315 107.934 90.93 104.947 89.9428C101.961 88.9556 101.961 88.9541 101.962 88.9528C101.962 88.9525 101.962 88.9512 101.962 88.9506C101.963 88.9493 101.963 88.9484 101.963 88.9474C101.964 88.9462 101.964 88.9462 101.964 88.9471C101.963 88.9493 101.961 88.9566 101.956 88.9683C101.948 88.9919 101.933 89.0348 101.911 89.0947C101.867 89.2149 101.794 89.4044 101.692 89.6517C101.488 90.1475 101.167 90.8697 100.716 91.7279C99.8068 93.4562 98.4042 95.6714 96.4198 97.6987C92.5725 101.63 86.4468 105.007 76.7307 102.403L75.1024 108.479Z" fill="black"/>
<path d="M80.5071 52.9575C80.9565 51.2793 79.9608 49.5548 78.283 49.1051C76.6051 48.6557 74.8803 49.6513 74.4309 51.3292L80.5071 52.9575ZM70.4018 66.3648C69.9524 68.0426 70.9481 69.7675 72.6259 70.2172C74.3041 70.6666 76.0286 69.671 76.4783 67.9931L70.4018 66.3648ZM74.4309 51.3292L70.4018 66.3648L76.4783 67.9931L80.5071 52.9575L74.4309 51.3292Z" fill="black"/>
<path d="M102.229 58.7774C102.678 57.0996 101.682 55.3751 100.004 54.9253C98.3266 54.4756 96.6018 55.4716 96.1524 57.1494L102.229 58.7774ZM92.1236 72.185C91.6739 73.8629 92.6696 75.5877 94.3474 76.0371C96.0256 76.4869 97.7501 75.4909 98.1998 73.813L92.1236 72.185ZM96.1524 57.1494L92.1236 72.185L98.1998 73.813L102.229 58.7774L96.1524 57.1494Z" fill="black"/>
</svg>
