<svg width="50" height="50" viewBox="0 0 50 50" fill="none" xmlns="http://www.w3.org/2000/svg">
<path d="M15.0103 24.9013C14.9547 24.3746 14.4826 23.9928 13.9559 24.0483C13.4293 24.104 13.0475 24.576 13.103 25.1027L15.0103 24.9013ZM36.904 25.0806C36.9475 24.5528 36.5548 24.0897 36.0269 24.0463C35.4991 24.0029 35.036 24.3956 34.9926 24.9234L36.904 25.0806ZM14.0567 25.002C13.103 25.1027 13.1031 25.1034 13.1032 25.1041C13.1032 25.1044 13.1033 25.1052 13.1033 25.1057C13.1035 25.1068 13.1036 25.1081 13.1038 25.1094C13.1041 25.112 13.1044 25.1152 13.1049 25.1186C13.1056 25.1257 13.1067 25.1345 13.108 25.145C13.1107 25.1659 13.1146 25.1936 13.1199 25.2276C13.1302 25.2956 13.1463 25.3887 13.1703 25.5035C13.2182 25.7331 13.2981 26.0507 13.4285 26.4269C13.689 27.1786 14.1546 28.1744 14.9783 29.1688C16.655 31.1929 19.6975 33.071 25.0855 33.071V31.1532C20.1955 31.1532 17.7235 29.4762 16.4553 27.9454C15.8066 27.1622 15.4422 26.3805 15.2406 25.799C15.14 25.5087 15.0809 25.2708 15.0476 25.1115C15.0311 25.0319 15.021 24.9724 15.0154 24.9361C15.0126 24.918 15.0109 24.9057 15.0101 24.8998C15.0098 24.8968 15.0097 24.8955 15.0097 24.8957C15.0097 24.8957 15.0098 24.8963 15.0099 24.8972C15.0099 24.8977 15.01 24.8982 15.01 24.8989C15.01 24.8993 15.0101 24.8999 15.0101 24.9001C15.0102 24.9007 15.0103 24.9013 14.0567 25.002ZM25.0855 33.071C30.4734 33.071 33.4807 31.1924 35.1181 29.1583C35.9217 28.1603 36.3653 27.1612 36.6088 26.4079C36.7307 26.0307 36.8033 25.7124 36.846 25.4824C36.8674 25.3673 36.8812 25.2739 36.8901 25.2058C36.8946 25.1718 36.8977 25.1441 36.9 25.1231C36.9011 25.1126 36.902 25.1037 36.9026 25.0966C36.9029 25.0931 36.9032 25.09 36.9034 25.0873C36.9036 25.0859 36.9037 25.0847 36.9038 25.0836C36.9038 25.0831 36.9039 25.0823 36.9039 25.082C36.904 25.0813 36.904 25.0806 35.9483 25.002C34.9926 24.9234 34.9926 24.9228 34.9927 24.9222C34.9927 24.922 34.9927 24.9214 34.9928 24.921C34.9928 24.9204 34.9929 24.9198 34.9929 24.9193C34.993 24.9183 34.9931 24.9179 34.9931 24.9177C34.9931 24.9175 34.993 24.9188 34.9926 24.9217C34.9921 24.9277 34.9907 24.9398 34.9883 24.9579C34.9836 24.9939 34.975 25.0533 34.9602 25.1327C34.9308 25.2915 34.8774 25.5287 34.7839 25.8181C34.5965 26.3979 34.2517 27.1763 33.6242 27.9557C32.3998 29.4767 29.9757 31.1532 25.0855 31.1532V33.071Z" fill="black"/>
<path d="M18.2237 18.8361C18.1255 18.3157 17.6241 17.9733 17.1037 18.0715C16.5832 18.1696 16.2409 18.6711 16.3391 19.1916L18.2237 18.8361ZM23.8396 19.1767C23.9295 18.6547 23.5793 18.1588 23.0575 18.0688C22.5356 17.9789 22.0395 18.3291 21.9496 18.851L23.8396 19.1767ZM17.2814 19.0138C16.3391 19.1916 16.3392 19.192 16.3392 19.1923C16.3392 19.1925 16.3393 19.1929 16.3393 19.1932C16.3394 19.1939 16.3396 19.1945 16.3397 19.1952C16.34 19.1966 16.3403 19.1981 16.3407 19.1998C16.3413 19.2033 16.3421 19.2073 16.3431 19.2121C16.345 19.2215 16.3475 19.2334 16.3506 19.2477C16.3568 19.2764 16.3656 19.3146 16.3773 19.3609C16.4007 19.4534 16.436 19.58 16.4864 19.7295C16.586 20.025 16.7504 20.4272 17.0103 20.8371C17.5366 21.6671 18.5089 22.5922 20.1093 22.5922V20.6744C19.3758 20.6744 18.9342 20.2897 18.63 19.81C18.4746 19.565 18.3696 19.3123 18.3037 19.1168C18.2713 19.0206 18.2497 18.9425 18.2369 18.8919C18.2306 18.8666 18.2265 18.8485 18.2243 18.8387C18.2233 18.8339 18.2227 18.8311 18.2226 18.8306C18.2226 18.8303 18.2226 18.8306 18.2228 18.8316C18.2229 18.8321 18.223 18.8326 18.2232 18.8334C18.2233 18.8338 18.2233 18.8342 18.2234 18.8347C18.2235 18.8348 18.2235 18.8352 18.2236 18.8353C18.2236 18.8357 18.2237 18.8361 17.2814 19.0138ZM20.1093 22.5922C21.713 22.5922 22.6766 21.6634 23.1929 20.8275C23.4472 20.416 23.6056 20.0123 23.7007 19.7161C23.7488 19.5663 23.782 19.4394 23.804 19.3466C23.8149 19.3001 23.8231 19.2619 23.829 19.2331C23.8318 19.2188 23.8342 19.2068 23.8359 19.1973C23.8368 19.1926 23.8375 19.1885 23.8381 19.185C23.8385 19.1833 23.8388 19.1818 23.839 19.1803C23.8391 19.1797 23.8392 19.179 23.8393 19.1784C23.8393 19.1781 23.8394 19.1776 23.8394 19.1775C23.8395 19.1771 23.8396 19.1767 22.8946 19.0138C21.9496 18.851 21.9496 18.8505 21.9497 18.8501C21.9497 18.85 21.9498 18.8497 21.9498 18.8495C21.9499 18.849 21.95 18.8486 21.9501 18.8482C21.9502 18.8474 21.9503 18.8469 21.9504 18.8464C21.9506 18.8454 21.9506 18.8451 21.9506 18.8453C21.9505 18.8458 21.95 18.8485 21.9491 18.8533C21.947 18.863 21.9433 18.881 21.9373 18.9061C21.9254 18.9566 21.9052 19.0344 21.8745 19.1301C21.812 19.325 21.7117 19.5763 21.5614 19.8196C21.2685 20.2935 20.8394 20.6744 20.1093 20.6744V22.5922Z" fill="black"/>
<path d="M27.628 18.8361C27.5298 18.3156 27.0284 17.9733 26.508 18.0715C25.9875 18.1696 25.6452 18.6711 25.7434 19.1915L27.628 18.8361ZM33.2439 19.1767C33.3338 18.6548 32.9836 18.1587 32.4617 18.0688C31.9399 17.9788 31.4438 18.329 31.3539 18.8509L33.2439 19.1767ZM26.6857 19.0138C25.7434 19.1915 25.7435 19.1919 25.7435 19.1923C25.7435 19.1924 25.7436 19.1929 25.7436 19.1932C25.7437 19.1938 25.7439 19.1945 25.744 19.1951C25.7443 19.1966 25.7446 19.1981 25.7449 19.1998C25.7456 19.2032 25.7464 19.2073 25.7474 19.2121C25.7493 19.2215 25.7518 19.2334 25.7549 19.2477C25.7611 19.2763 25.7699 19.3145 25.7816 19.3609C25.805 19.4534 25.8403 19.5799 25.8907 19.7294C25.9903 20.025 26.1547 20.4273 26.4146 20.8371C26.9409 21.6671 27.9132 22.5923 29.5135 22.5923V20.6744C28.7801 20.6744 28.3385 20.2898 28.0342 19.81C27.8789 19.5649 27.7739 19.3123 27.708 19.1168C27.6756 19.0206 27.654 18.9425 27.6412 18.8918C27.6349 18.8666 27.6308 18.8484 27.6286 18.8387C27.6276 18.8338 27.627 18.831 27.6269 18.8305C27.6269 18.8303 27.6269 18.8306 27.6271 18.8315C27.6272 18.832 27.6273 18.8326 27.6275 18.8333C27.6276 18.8337 27.6276 18.8342 27.6277 18.8346C27.6278 18.8348 27.6278 18.8351 27.6279 18.8353C27.6279 18.8357 27.628 18.8361 26.6857 19.0138ZM29.5135 22.5923C31.1173 22.5923 32.0809 21.6633 32.5972 20.8275C32.8515 20.4159 33.0099 20.0123 33.105 19.716C33.1531 19.5662 33.1863 19.4394 33.2083 19.3466C33.2192 19.3 33.2274 19.2618 33.2332 19.2331C33.2361 19.2187 33.2385 19.2068 33.2402 19.1973C33.241 19.1925 33.2418 19.1885 33.2424 19.185C33.2428 19.1833 33.2431 19.1818 33.2433 19.1803C33.2434 19.1797 33.2435 19.179 33.2436 19.1783C33.2436 19.178 33.2437 19.1776 33.2437 19.1774C33.2438 19.1771 33.2439 19.1767 32.2989 19.0138C31.3539 18.8509 31.3539 18.8505 31.354 18.8501C31.354 18.85 31.3541 18.8497 31.3541 18.8495C31.3542 18.849 31.3543 18.8486 31.3544 18.8482C31.3545 18.8474 31.3546 18.8468 31.3547 18.8463C31.3549 18.8454 31.3549 18.845 31.3549 18.8453C31.3548 18.8457 31.3543 18.8485 31.3534 18.8533C31.3513 18.8629 31.3476 18.881 31.3416 18.9061C31.3297 18.9566 31.3095 19.0344 31.2788 19.1301C31.2162 19.325 31.116 19.5763 30.9657 19.8196C30.6728 20.2935 30.2437 20.6744 29.5135 20.6744V22.5923Z" fill="black"/>
<path d="M31.0057 2.58984L34.0724 9.28796L41.4066 8.59481L40.7134 15.9289L47.4116 18.9957L43.1442 25.0006L47.4116 31.0056L40.7134 34.0725L41.4066 41.4066L34.0724 40.7134L31.0057 47.4115L25.0007 43.1442L18.9957 47.4115L15.929 40.7134L8.59482 41.4066L9.28795 34.0725L2.58984 31.0056L6.85719 25.0006L2.58984 18.9957L9.28795 15.9289L8.59482 8.59481L15.929 9.28796L18.9957 2.58984L25.0007 6.85719L31.0057 2.58984Z" fill="#FEDECC" stroke="#F95902" stroke-width="1.91787" stroke-linejoin="round"/>
<path d="M18.6756 23.779C18.7746 23.2588 18.4331 22.7568 17.9128 22.6577C17.3926 22.5587 16.8906 22.9002 16.7916 23.4204L18.6756 23.779ZM32.9055 27.722C33.0718 27.2192 32.7989 26.6768 32.296 26.5106C31.7932 26.3443 31.2508 26.6172 31.0845 27.1201L32.9055 27.722ZM17.7336 23.5997C16.7916 23.4204 16.7915 23.4209 16.7914 23.4215C16.7913 23.4217 16.7912 23.4222 16.7912 23.4226C16.791 23.4235 16.7908 23.4243 16.7906 23.4254C16.7902 23.4275 16.7897 23.4299 16.7892 23.4329C16.7882 23.4387 16.7868 23.4461 16.7853 23.4551C16.7821 23.4732 16.778 23.4977 16.7733 23.5283C16.7638 23.5893 16.7516 23.6748 16.7391 23.7817C16.714 23.9951 16.6874 24.2958 16.6788 24.6598C16.6614 25.3842 16.7139 26.3808 17.0021 27.4499C17.5917 29.636 19.1648 32.0728 22.896 33.0725L23.3924 31.22C20.4278 30.4257 19.2958 28.5893 18.8539 26.9505C18.6265 26.1072 18.5817 25.3037 18.5961 24.7058C18.6032 24.4089 18.6247 24.1679 18.6439 24.005C18.6534 23.9238 18.6622 23.8624 18.6683 23.8237C18.6713 23.8043 18.6736 23.7907 18.6749 23.7831C18.6756 23.7793 18.676 23.7771 18.6761 23.7764C18.6762 23.776 18.6762 23.7761 18.6761 23.7765C18.676 23.7768 18.676 23.777 18.6759 23.7774C18.6759 23.7776 18.6758 23.778 18.6758 23.7782C18.6757 23.7786 18.6756 23.779 17.7336 23.5997ZM22.896 33.0725C26.6294 34.0729 29.1873 32.7399 30.7658 31.1272C31.5366 30.3397 32.0662 29.4974 32.4024 28.858C32.5715 28.5366 32.6942 28.2615 32.776 28.063C32.8168 27.9637 32.8477 27.8831 32.8691 27.8251C32.8797 27.7962 32.8881 27.7728 32.8941 27.7554C32.8971 27.7468 32.8995 27.7396 32.9015 27.7341C32.9024 27.7313 32.9032 27.7289 32.9039 27.7268C32.9042 27.7259 32.9045 27.7249 32.9048 27.7242C32.9049 27.7238 32.9051 27.7232 32.9052 27.723C32.9053 27.7225 32.9055 27.722 31.995 27.4211C31.0845 27.1201 31.0846 27.1196 31.0848 27.1193C31.0848 27.1192 31.0849 27.1188 31.085 27.1186C31.0852 27.1182 31.0853 27.1179 31.0853 27.1176C31.0855 27.1172 31.0855 27.1172 31.0854 27.1175C31.0851 27.1182 31.0844 27.1204 31.0832 27.124C31.0806 27.1312 31.0761 27.1443 31.0693 27.1625C31.0558 27.1992 31.0338 27.2569 31.0027 27.3323C30.9404 27.4835 30.8425 27.7037 30.7049 27.9653C30.4278 28.4922 30.0002 29.1676 29.3952 29.7857C28.2222 30.9842 26.3546 32.0138 23.3924 31.22L22.896 33.0725Z" fill="#F95902"/>
<path d="M24.5454 16.1449C24.6824 15.6333 24.3789 15.1075 23.8673 14.9704C23.3558 14.8334 22.8299 15.1369 22.6929 15.6485L24.5454 16.1449ZM21.4645 20.2325C21.3275 20.744 21.6311 21.2699 22.1426 21.407C22.6542 21.544 23.18 21.2405 23.3171 20.729L21.4645 20.2325ZM22.6929 15.6485L21.4645 20.2325L23.3171 20.729L24.5454 16.1449L22.6929 15.6485Z" fill="#F95902"/>
<path d="M31.1664 17.9183C31.3035 17.4067 30.9999 16.881 30.4884 16.7439C29.9768 16.6067 29.451 16.9104 29.3139 17.4219L31.1664 17.9183ZM28.0857 22.006C27.9486 22.5175 28.2521 23.0434 28.7636 23.1804C29.2753 23.3175 29.8011 23.0139 29.9382 22.5023L28.0857 22.006ZM29.3139 17.4219L28.0857 22.006L29.9382 22.5023L31.1664 17.9183L29.3139 17.4219Z" fill="#F95902"/>
</svg>
